<svg xmlns="http://www.w3.org/2000/svg"><symbol id="mecha-stilts" viewBox="0 0 256 256"><path d="M128 0l111 64v128l-111 64-111-64V64L128 0z"/><path fill="#fff" d="M0 0zm0 0zm0 0zm0 0zm0 0zm0 0zm0 0zm0 0zm0 0z"/></symbol><symbol id="space-bubbles" viewBox="0 0 256 256"><path d="M127-2l112 65v129l-112 64-112-64V63L127-2z"/><path fill="#fff" d="M0 0zm0 0zm0 0zm0 0zm0 0zm0 0zm0 0zm0 0z"/></symbol><symbol id="super-domes" viewBox="0 0 256 256"><path d="M128 0l111 64v128l-111 64-111-64V64L128 0z"/><path fill="#fff" d="M0 0zm0 0zm0 0zm0 0zm0 0zm0 0zm0 0zm0 0z"/></symbol></svg>